<svg width="20" height="20" viewBox="0 0 20 20" fill="none" xmlns="http://www.w3.org/2000/svg">
<g opacity="0.5">
<path d="M13.0919 10.5917C13.9089 9.94888 14.5052 9.06743 14.7979 8.06994C15.0906 7.07246 15.0652 6.00855 14.7251 5.02622C14.385 4.04388 13.7471 3.19199 12.9003 2.58904C12.0535 1.98609 11.0398 1.66208 10.0002 1.66208C8.9607 1.66208 7.947 1.98609 7.10018 2.58904C6.25336 3.19199 5.61553 4.04388 5.27542 5.02622C4.93531 6.00855 4.90984 7.07246 5.20254 8.06994C5.49525 9.06743 6.09158 9.94888 6.90857 10.5917C5.50864 11.1525 4.28715 12.0828 3.37432 13.2833C2.46149 14.4837 1.89154 15.9094 1.72524 17.4083C1.7132 17.5178 1.72284 17.6285 1.7536 17.7342C1.78435 17.8399 1.83563 17.9385 1.9045 18.0244C2.04359 18.1979 2.24589 18.309 2.46691 18.3333C2.68792 18.3576 2.90954 18.2932 3.08301 18.1541C3.25648 18.015 3.3676 17.8127 3.39191 17.5917C3.5749 15.9627 4.35165 14.4582 5.57376 13.3657C6.79587 12.2731 8.37766 11.6692 10.0169 11.6692C11.6562 11.6692 13.2379 12.2731 14.4601 13.3657C15.6822 14.4582 16.4589 15.9627 16.6419 17.5917C16.6646 17.7964 16.7623 17.9855 16.9162 18.1225C17.0701 18.2595 17.2692 18.3346 17.4752 18.3333H17.5669C17.7854 18.3082 17.985 18.1977 18.1224 18.026C18.2597 17.8543 18.3237 17.6353 18.3002 17.4167C18.1332 15.9135 17.5601 14.4841 16.6426 13.2818C15.7251 12.0795 14.4977 11.1496 13.0919 10.5917V10.5917ZM10.0002 9.99999C9.34097 9.99999 8.69651 9.8045 8.14834 9.43822C7.60018 9.07195 7.17293 8.55136 6.92064 7.94227C6.66835 7.33318 6.60234 6.66296 6.73096 6.01636C6.85957 5.36975 7.17704 4.77581 7.64322 4.30964C8.10939 3.84346 8.70334 3.52599 9.34994 3.39737C9.99654 3.26876 10.6668 3.33477 11.2759 3.58706C11.8849 3.83935 12.4055 4.26659 12.7718 4.81476C13.1381 5.36292 13.3336 6.00739 13.3336 6.66666C13.3336 7.55071 12.9824 8.39856 12.3573 9.02368C11.7321 9.6488 10.8843 9.99999 10.0002 9.99999Z" fill="#222222"/>
</g>
</svg>
