<svg width="19" height="19" viewBox="0 0 19 19" fill="none" xmlns="http://www.w3.org/2000/svg">
<path d="M5.44466 12.6111C4.67856 12.612 3.93908 12.3301 3.3679 11.8196C2.79671 11.309 2.43398 10.6057 2.3492 9.84429C2.26441 9.0829 2.46354 8.31699 2.90844 7.69331C3.35333 7.06962 4.0127 6.63202 4.76022 6.46433C4.54394 5.45562 4.73722 4.40231 5.29755 3.53611C5.85787 2.66991 6.73935 2.06178 7.74805 1.84549C8.75676 1.62921 9.81007 1.82249 10.6763 2.38282C11.5425 2.94315 12.1506 3.82462 12.3669 4.83333H12.4447C13.4091 4.83236 14.3394 5.18977 15.0551 5.83617C15.7709 6.48258 16.2209 7.37186 16.3178 8.33139C16.4147 9.29091 16.1516 10.2522 15.5796 11.0287C15.0077 11.8052 14.1676 12.3414 13.2224 12.5333M11.6669 10.2778L9.33355 7.94444M9.33355 7.94444L7.00022 10.2778M9.33355 7.94444V17.2778" stroke="white" stroke-linecap="round" stroke-linejoin="round"/>
</svg>
