<svg width="20" height="20" viewBox="0 0 20 20" fill="none" xmlns="http://www.w3.org/2000/svg">
<g opacity="0.5">
<path d="M14.1668 7.49999V5.83332C14.1668 4.72825 13.7278 3.66845 12.9464 2.88704C12.165 2.10564 11.1052 1.66666 10.0002 1.66666C8.89509 1.66666 7.83529 2.10564 7.05388 2.88704C6.27248 3.66845 5.8335 4.72825 5.8335 5.83332V7.49999C5.17045 7.49999 4.53457 7.76338 4.06573 8.23222C3.59689 8.70106 3.3335 9.33695 3.3335 9.99999V15.8333C3.3335 16.4964 3.59689 17.1323 4.06573 17.6011C4.53457 18.0699 5.17045 18.3333 5.8335 18.3333H14.1668C14.8299 18.3333 15.4658 18.0699 15.9346 17.6011C16.4034 17.1323 16.6668 16.4964 16.6668 15.8333V9.99999C16.6668 9.33695 16.4034 8.70106 15.9346 8.23222C15.4658 7.76338 14.8299 7.49999 14.1668 7.49999ZM7.50016 5.83332C7.50016 5.17028 7.76355 4.5344 8.2324 4.06556C8.70124 3.59672 9.33712 3.33332 10.0002 3.33332C10.6632 3.33332 11.2991 3.59672 11.7679 4.06556C12.2368 4.5344 12.5002 5.17028 12.5002 5.83332V7.49999H7.50016V5.83332ZM15.0002 15.8333C15.0002 16.0543 14.9124 16.2663 14.7561 16.4226C14.5998 16.5789 14.3878 16.6667 14.1668 16.6667H5.8335C5.61248 16.6667 5.40052 16.5789 5.24424 16.4226C5.08796 16.2663 5.00016 16.0543 5.00016 15.8333V9.99999C5.00016 9.77898 5.08796 9.56702 5.24424 9.41073C5.40052 9.25445 5.61248 9.16666 5.8335 9.16666H14.1668C14.3878 9.16666 14.5998 9.25445 14.7561 9.41073C14.9124 9.56702 15.0002 9.77898 15.0002 9.99999V15.8333Z" fill="#222222"/>
</g>
</svg>
